/* XPM */
static char *_14d89b7c1904c6db00ad86d8256fb7f8FUcifHiid5xrLof[] = {
/* columns rows colors chars-per-pixel */
"32 32 6 1 ",
"  c None",
". c black",
"X c #0D0C0C",
"o c #342E0F",
"O c #CC2626",
"+ c #282DD2",
/* pixels */
"                                ",
"                                ",
"                                ",
"                                ",
"                                ",
"                                ",
"                                ",
"                                ",
"             X....X             ",
"            .XOOOOXX            ",
"            .OooOOOX            ",
"            ........XXX         ",
"           ..oooooo.            ",
"           .o.oo.oo.            ",
"           .ooooooo..           ",
"           .oooooooo.           ",
"           ..o...ooo.           ",
"            .oooooo..           ",
"           .........            ",
"        ....+.+++.+. ...        ",
"       ..o..+.+++.+...o..       ",
"       .ooo.+.+++.+..ooo.       ",
"       .ooo.+++++++..ooo.       ",
"       ...o.+++++++..oo..       ",
"         ...+++++++.....        ",
"           .+.+.+.+.            ",
"          ..+.+++.+.            ",
"         ..+++.+.++...          ",
"        ..++++...+++...         ",
"       ..+++++. .++++...        ",
"       ........ ........        ",
"                                "
};
